<svg xmlns="http://www.w3.org/2000/svg" viewBox="0 0 500 500"><g id="freepik--background-complete--inject-294"><polygon points="388.43 212 392.96 211.17 393.97 206.39 394.98 211.17 399.51 212.01 395 213.11 393.97 217.62 392.94 213.11 388.43 212" style="fill:#ebebeb"></polygon><polygon points="66.7 138.87 71.24 138.03 72.25 133.26 73.26 138.03 77.8 138.88 73.28 139.98 72.25 144.49 71.22 139.98 66.7 138.87" style="fill:#ebebeb"></polygon><polygon points="422.2 113.72 426.74 112.88 427.75 108.1 428.76 112.88 433.3 113.72 428.78 114.82 427.75 119.33 426.72 114.82 422.2 113.72" style="fill:#ebebeb"></polygon><polygon points="352.69 254.71 357.23 253.88 358.24 249.1 359.25 253.88 363.79 254.72 359.27 255.82 358.24 260.33 357.21 255.82 352.69 254.71" style="fill:#ebebeb"></polygon><polygon points="113.44 209.65 117.97 208.81 118.98 204.03 119.99 208.81 124.53 209.65 120.01 210.75 118.98 215.27 117.95 210.75 113.44 209.65" style="fill:#ebebeb"></polygon><polygon points="122.36 249.27 124.89 248.8 125.46 246.13 126.02 248.8 128.56 249.27 126.03 249.88 125.46 252.41 124.88 249.88 122.36 249.27" style="fill:#ebebeb"></polygon><polygon points="322.91 99.19 325.44 98.72 326.01 96.05 326.58 98.72 329.11 99.19 326.59 99.81 326.01 102.33 325.43 99.81 322.91 99.19" style="fill:#ebebeb"></polygon><polygon points="248.49 42.77 251.02 42.3 251.59 39.63 252.16 42.3 254.69 42.77 252.17 43.39 251.59 45.91 251.01 43.39 248.49 42.77" style="fill:#ebebeb"></polygon><polygon points="159.67 188.65 162.2 188.18 162.77 185.51 163.34 188.18 165.87 188.65 163.35 189.26 162.77 191.79 162.19 189.26 159.67 188.65" style="fill:#ebebeb"></polygon><polygon points="106.11 84.81 108.64 84.34 109.21 81.67 109.77 84.34 112.31 84.81 109.78 85.43 109.21 87.95 108.63 85.43 106.11 84.81" style="fill:#ebebeb"></polygon><polygon points="349.43 183.29 351.96 182.82 352.52 180.15 353.09 182.82 355.62 183.29 353.1 183.91 352.52 186.43 351.95 183.91 349.43 183.29" style="fill:#ebebeb"></polygon><polygon points="82.06 210.76 84.59 210.29 85.16 207.62 85.73 210.29 88.26 210.76 85.74 211.37 85.16 213.9 84.58 211.37 82.06 210.76" style="fill:#ebebeb"></polygon><path d="M370.16,64.51a.74.74,0,0,0,0-1.47A.74.74,0,0,0,370.16,64.51Z" style="fill:#ebebeb"></path><path d="M397,243.1a.74.74,0,0,0,0-1.47A.74.74,0,0,0,397,243.1Z" style="fill:#ebebeb"></path><path d="M179.45,99.19a.74.74,0,0,0,0-1.47A.74.74,0,0,0,179.45,99.19Z" style="fill:#ebebeb"></path><path d="M363.79,123.21a.74.74,0,0,0,0-1.47A.74.74,0,0,0,363.79,123.21Z" style="fill:#ebebeb"></path><path d="M321.67,172.81a.52.52,0,0,0,0-1A.52.52,0,0,0,321.67,172.81Z" style="fill:#ebebeb"></path><path d="M265.4,74.55a.52.52,0,0,0,0-1A.52.52,0,0,0,265.4,74.55Z" style="fill:#ebebeb"></path><path d="M316.65,76.4a.52.52,0,0,0,0-1A.52.52,0,0,0,316.65,76.4Z" style="fill:#ebebeb"></path><path d="M135.24,132.22a1.41,1.41,0,0,0,0-2.82A1.41,1.41,0,0,0,135.24,132.22Z" style="fill:#ebebeb"></path><path d="M310,81.17a1.41,1.41,0,0,0,0-2.81A1.41,1.41,0,0,0,310,81.17Z" style="fill:#ebebeb"></path><path d="M433.65,315.22l-13.12.28-6.66.11c-2.23.05-4.47,0-6.7.06h-.44v-.45L406.67,304v-.5h.5l13.24.06c4.42,0,8.83.11,13.24.16h.28V304c0,1.9-.09,3.79-.13,5.66Zm0,0-.14-5.65c0-1.86-.11-3.7-.13-5.54l.27.28c-4.41.05-8.82.16-13.24.16l-13.24.06.5-.5-.05,11.19-.45-.44c2.18,0,4.36,0,6.55.05l6.58.12Z" style="fill:#ebebeb"></path><path d="M418.88,329.33l-13.12.28-6.66.11c-2.23,0-4.47,0-6.7.06H392v-.45l-.06-11.19v-.5h.5l13.24.07c4.42,0,8.83.11,13.24.16h.28v.27c0,1.9-.08,3.79-.13,5.66Zm0,0-.14-5.65c-.05-1.86-.11-3.7-.13-5.54l.27.28c-4.41.05-8.82.16-13.24.16l-13.24.06.5-.5,0,11.19-.45-.44c2.18,0,4.36,0,6.55.05l6.58.12Z" style="fill:#ebebeb"></path><path d="M448.43,329.33l-13.13.28-6.66.11c-2.23,0-4.46,0-6.69.06h-.45v-.45l-.05-11.19v-.5H422l13.24.07c4.41,0,8.82.11,13.24.16h.27v.27c0,1.9-.09,3.79-.13,5.66Zm0,0-.15-5.65c0-1.86-.11-3.7-.13-5.54l.28.28c-4.42.05-8.83.16-13.24.16l-13.24.06.49-.5-.05,11.19-.44-.44c2.18,0,4.35,0,6.54.05l6.58.12Z" style="fill:#ebebeb"></path><path d="M92.83,315.22l-13.13.28-6.66.11c-2.22.05-4.46,0-6.69.06H65.9v-.45L65.85,304v-.5h.51l13.24.06c4.41,0,8.82.11,13.24.16h.27V304c0,1.9-.09,3.79-.13,5.66Zm0,0-.14-5.65c0-1.86-.12-3.7-.14-5.54l.28.28c-4.42.05-8.83.16-13.24.16l-13.24.06.5-.5-.06,11.19-.44-.44c2.18,0,4.35,0,6.54.05l6.58.12Z" style="fill:#ebebeb"></path><path d="M78.06,329.33l-13.13.28-6.66.11c-2.23,0-4.46,0-6.7.06h-.44v-.45l-.05-11.19v-.5h.5l13.24.07c4.42,0,8.83.11,13.25.16h.27v.27c0,1.9-.09,3.79-.13,5.66Zm0,0-.15-5.65c0-1.86-.11-3.7-.13-5.54l.28.28c-4.42.05-8.83.16-13.25.16l-13.24.06.5-.5,0,11.19-.45-.44c2.19,0,4.36,0,6.55.05l6.58.12Z" style="fill:#ebebeb"></path><path d="M315.33,155.74,302.2,156l-6.66.11c-2.22,0-4.46,0-6.69.05h-.45v-.45l0-11.19v-.5h.51l13.24.06c4.41,0,8.82.11,13.24.16h.27v.27c0,1.9-.09,3.78-.13,5.65Zm0,0-.15-5.66c0-1.86-.11-3.7-.13-5.53l.28.27c-4.42.05-8.83.16-13.24.16l-13.24.07.5-.5-.06,11.19-.44-.45c2.18,0,4.35,0,6.54.06l6.58.11Z" style="fill:#ebebeb"></path><path d="M300.55,169.85l-13.12.28-6.66.11c-2.23,0-4.46,0-6.7,0h-.44v-.45l-.06-11.19v-.51h.5l13.24.06c4.42,0,8.83.11,13.24.16h.28v.27c0,1.9-.09,3.78-.13,5.65Zm0,0-.14-5.66c0-1.86-.11-3.7-.13-5.53l.27.27c-4.41,0-8.82.16-13.24.16l-13.24.07.5-.5-.05,11.19-.45-.45c2.19,0,4.36,0,6.55.06l6.58.11Z" style="fill:#ebebeb"></path><path d="M330.1,169.85l-13.13.28-6.66.11c-2.22,0-4.46,0-6.69,0h-.45v-.45l-.05-11.19v-.51h.5l13.24.06c4.41,0,8.82.11,13.24.16h.27v.27c0,1.9-.08,3.78-.13,5.65Zm0,0-.14-5.66c0-1.86-.12-3.7-.13-5.53l.27.27c-4.42,0-8.83.16-13.24.16l-13.24.07.5-.5-.06,11.19-.44-.45c2.18,0,4.36,0,6.54.06l6.58.11Z" style="fill:#ebebeb"></path><path d="M432.12,73.38,419,73.66l-6.66.11c-2.23,0-4.47,0-6.7.06h-.44v-.45l-.06-11.19v-.5h.5l13.24.06c4.42,0,8.83.12,13.24.17h.28v.27c0,1.9-.09,3.79-.14,5.65Zm0,0L432,67.73c0-1.87-.11-3.71-.13-5.54l.27.27c-4.41,0-8.82.16-13.24.17l-13.24.06.5-.5-.05,11.19-.45-.45c2.18,0,4.36,0,6.55.06l6.58.11Z" style="fill:#ebebeb"></path><path d="M446.89,87.49l-13.12.28-6.66.11c-2.23.05-4.46,0-6.7.05H420v-.45l-.06-11.19v-.5h.5l13.24.06c4.42,0,8.83.12,13.24.17h.28v.27c0,1.9-.09,3.79-.13,5.65Zm0,0-.14-5.65c0-1.87-.11-3.71-.13-5.54l.27.27c-4.41.05-8.82.16-13.24.17l-13.24.06.5-.5-.05,11.19-.45-.45c2.19,0,4.36,0,6.55.06l6.58.11Z" style="fill:#ebebeb"></path><path d="M78.06,73.39l-13.13.28-6.66.11c-2.23,0-4.46,0-6.7.06h-.44v-.45L51.08,62.2v-.5h.5l13.24.07c4.42,0,8.83.11,13.25.16h.27v.27c0,1.9-.09,3.79-.13,5.66Zm0,0-.15-5.65c0-1.87-.11-3.71-.13-5.54l.28.27c-4.42.06-8.83.16-13.25.17l-13.24.06.5-.5,0,11.19L51.57,73c2.19,0,4.36,0,6.55,0l6.58.11Z" style="fill:#ebebeb"></path><rect x="58.84" y="69.69" width="57.95" height="70.29" style="fill:#ebebeb"></rect><rect x="65.46" y="76.11" width="44.71" height="57.46" style="fill:#fff"></rect><rect x="65.46" y="76.11" width="1.74" height="57.46" style="fill:#dbdbdb"></rect><rect x="116.79" y="69.69" width="1.74" height="70.29" style="fill:#dbdbdb"></rect><rect x="82.55" y="89.14" width="10.54" height="31.41" style="fill:#dbdbdb"></rect><path d="M102.37,113H73.26V96.65h29.11Zm-28.11-1h27.11V97.65H74.26Z" style="fill:#ebebeb"></path><rect x="104.46" y="156.92" width="57.95" height="70.29" style="fill:#ebebeb"></rect><rect x="111.08" y="163.33" width="44.71" height="57.46" style="fill:#fff"></rect><rect x="111.08" y="163.33" width="1.74" height="57.46" style="fill:#dbdbdb"></rect><rect x="162.41" y="156.92" width="1.74" height="70.29" style="fill:#dbdbdb"></rect><rect x="129.11" y="178.19" width="9.03" height="22.83" style="fill:#ebebeb"></rect><path d="M146.07,208.3H120.81V191.56h25.26Zm-24.26-1h23.26V192.56H121.81Z" style="fill:#dbdbdb"></path><polygon points="321.62 376.87 450.54 376.87 454.69 295.06 317.47 295.06 321.62 376.87" style="fill:#ebebeb"></polygon><path d="M441.09,332.51H327.55L326,304.11H442.92Zm-112.59-1H440.15l1.69-26.39H327.05Z" style="fill:#dbdbdb"></path><path d="M439.55,365.18H330.81l-1.27-25.63H441.16Zm-107.78-1H438.61l1.47-23.63H330.6Z" style="fill:#dbdbdb"></path><path d="M397.38,321.39H373.31l-.89-6.85h25.84Zm-23.19-1h22.3l.63-4.83H373.57Z" style="fill:#dbdbdb"></path><path d="M397.38,355.79H373.31l-.89-6.85h25.84Zm-23.19-1h22.3l.63-4.83H373.57Z" style="fill:#dbdbdb"></path><polygon points="339.5 376.87 338.24 385.78 335.73 403.69 330.8 403.69 330.8 376.87 339.5 376.87" style="fill:#ebebeb"></polygon><polygon points="339.5 376.87 338.24 385.78 330.8 385.78 330.8 376.87 339.5 376.87" style="fill:#dbdbdb"></polygon><polygon points="432.66 376.87 433.91 385.78 436.43 403.69 441.36 403.69 441.36 376.87 432.66 376.87" style="fill:#ebebeb"></polygon><polygon points="432.66 376.87 433.91 385.78 441.36 385.78 441.36 376.87 432.66 376.87" style="fill:#dbdbdb"></polygon></g><g id="freepik--Carpet--inject-294"><path d="M61.45,449a97.52,97.52,0,0,1-10.66.5,97.52,97.52,0,0,1-10.66-.5,102.78,102.78,0,0,1,10.66-.5A102.78,102.78,0,0,1,61.45,449Z" style="fill:#FF81AE"></path><path d="M64.69,445.77a97.64,97.64,0,0,1-10.66.5,97.4,97.4,0,0,1-10.66-.5,102.65,102.65,0,0,1,10.66-.5A102.91,102.91,0,0,1,64.69,445.77Z" style="fill:#FF81AE"></path><path d="M68.08,442.56a97.4,97.4,0,0,1-10.66.5,97.64,97.64,0,0,1-10.66-.5,102.91,102.91,0,0,1,10.66-.5A102.65,102.65,0,0,1,68.08,442.56Z" style="fill:#FF81AE"></path><path d="M71.35,439.35a102.91,102.91,0,0,1-10.66.5,97.4,97.4,0,0,1-10.66-.5,102.65,102.65,0,0,1,10.66-.5A102.91,102.91,0,0,1,71.35,439.35Z" style="fill:#FF81AE"></path><path d="M74.64,436.14a102.91,102.91,0,0,1-10.66.5,97.52,97.52,0,0,1-10.66-.5,97.52,97.52,0,0,1,10.66-.5A102.91,102.91,0,0,1,74.64,436.14Z" style="fill:#FF81AE"></path><path d="M78,432.93a102.59,102.59,0,0,1-10.65.5,102.65,102.65,0,0,1-10.66-.5,97.4,97.4,0,0,1,10.66-.5A99.89,99.89,0,0,1,78,432.93Z" style="fill:#FF81AE"></path><path d="M81.22,429.72a102.91,102.91,0,0,1-10.66.5,102.78,102.78,0,0,1-10.66-.5,97.52,97.52,0,0,1,10.66-.5A97.64,97.64,0,0,1,81.22,429.72Z" style="fill:#FF81AE"></path><path d="M84.59,426.51a102.91,102.91,0,0,1-10.66.5,102.78,102.78,0,0,1-10.66-.5,97.52,97.52,0,0,1,10.66-.5A97.64,97.64,0,0,1,84.59,426.51Z" style="fill:#FF81AE"></path><path d="M87.77,423.3a100,100,0,0,1-10.66.49,100.19,100.19,0,0,1-10.66-.49,97.64,97.64,0,0,1,10.66-.5A97.4,97.4,0,0,1,87.77,423.3Z" style="fill:#FF81AE"></path><path d="M91.17,420.08a97.52,97.52,0,0,1-10.66.5,97.52,97.52,0,0,1-10.66-.5,102.78,102.78,0,0,1,10.66-.5A102.78,102.78,0,0,1,91.17,420.08Z" style="fill:#FF81AE"></path><path d="M94.46,416.87a97.52,97.52,0,0,1-10.66.5,97.52,97.52,0,0,1-10.66-.5,102.78,102.78,0,0,1,10.66-.5A102.78,102.78,0,0,1,94.46,416.87Z" style="fill:#FF81AE"></path><path d="M97.78,413.66a100.2,100.2,0,0,1-10.66.5,97.4,97.4,0,0,1-10.66-.5,102.65,102.65,0,0,1,10.66-.5A102.91,102.91,0,0,1,97.78,413.66Z" style="fill:#FF81AE"></path><path d="M438.55,449a113.89,113.89,0,0,1,21.32,0,113.89,113.89,0,0,1-21.32,0Z" style="fill:#FF81AE"></path><path d="M435.31,445.77a113.89,113.89,0,0,1,21.32,0,113.89,113.89,0,0,1-21.32,0Z" style="fill:#FF81AE"></path><path d="M431.92,442.56a113.89,113.89,0,0,1,21.32,0,113.89,113.89,0,0,1-21.32,0Z" style="fill:#FF81AE"></path><path d="M428.65,439.35a113.89,113.89,0,0,1,21.32,0,97.4,97.4,0,0,1-10.66.5A102.91,102.91,0,0,1,428.65,439.35Z" style="fill:#FF81AE"></path><path d="M425.36,436.14a102.91,102.91,0,0,1,10.66-.5,97.52,97.52,0,0,1,10.66.5,97.52,97.52,0,0,1-10.66.5A102.91,102.91,0,0,1,425.36,436.14Z" style="fill:#FF81AE"></path><path d="M422.05,432.93a99.89,99.89,0,0,1,10.65-.5,97.4,97.4,0,0,1,10.66.5,113.78,113.78,0,0,1-21.31,0Z" style="fill:#FF81AE"></path><path d="M418.78,429.72a113.89,113.89,0,0,1,21.32,0,113.89,113.89,0,0,1-21.32,0Z" style="fill:#FF81AE"></path><path d="M415.41,426.51a113.89,113.89,0,0,1,21.32,0,113.89,113.89,0,0,1-21.32,0Z" style="fill:#FF81AE"></path><path d="M412.23,423.3a113.89,113.89,0,0,1,21.32,0,116.2,116.2,0,0,1-21.32,0Z" style="fill:#FF81AE"></path><path d="M408.83,420.08a113.89,113.89,0,0,1,21.32,0,113.89,113.89,0,0,1-21.32,0Z" style="fill:#FF81AE"></path><path d="M405.54,416.87a113.89,113.89,0,0,1,21.32,0,113.89,113.89,0,0,1-21.32,0Z" style="fill:#FF81AE"></path><path d="M402.22,413.66a113.89,113.89,0,0,1,21.32,0,97.4,97.4,0,0,1-10.66.5A100.2,100.2,0,0,1,402.22,413.66Z" style="fill:#FF81AE"></path><polygon points="94.7 413.23 406.25 413.23 442.88 449.41 57.12 449.41 94.7 413.23" style="fill:#FF81AE"></polygon><polygon points="101.15 413.23 63.84 449.41 59.98 449.41 97.56 413.23 101.15 413.23" style="opacity:0.1"></polygon><polygon points="109.65 413.23 74.39 449.41 70.21 449.41 106.29 413.23 109.65 413.23" style="opacity:0.1"></polygon><polygon points="124.5 413.23 92.78 449.41 81.05 449.41 115.03 413.23 124.5 413.23" style="opacity:0.1"></polygon><polygon points="133 413.23 103.31 449.41 99.14 449.41 129.63 413.23 133 413.23" style="opacity:0.1"></polygon><polygon points="147.82 413.23 121.72 449.41 109.98 449.41 138.37 413.23 147.82 413.23" style="opacity:0.1"></polygon><polygon points="156.32 413.23 132.25 449.41 128.08 449.41 152.96 413.23 156.32 413.23" style="opacity:0.1"></polygon><polygon points="171.17 413.23 150.65 449.41 138.92 449.41 161.69 413.23 171.17 413.23" style="opacity:0.1"></polygon><polygon points="179.66 413.23 161.19 449.41 157.01 449.41 176.3 413.23 179.66 413.23" style="opacity:0.1"></polygon><polygon points="194.5 413.23 179.59 449.41 167.86 449.41 185.04 413.23 194.5 413.23" style="opacity:0.1"></polygon><polygon points="203 413.23 190.13 449.41 185.95 449.41 199.63 413.23 203 413.23" style="opacity:0.1"></polygon><polygon points="217.84 413.23 208.52 449.41 196.79 449.41 208.37 413.23 217.84 413.23" style="opacity:0.1"></polygon><polygon points="226.33 413.23 219.07 449.41 214.89 449.41 222.97 413.23 226.33 413.23" style="opacity:0.1"></polygon><polygon points="241.17 413.23 237.47 449.41 225.73 449.41 231.71 413.23 241.17 413.23" style="opacity:0.1"></polygon><polygon points="249.67 413.23 248 449.41 243.83 449.41 246.3 413.23 249.67 413.23" style="opacity:0.1"></polygon><polygon points="266.4 449.41 254.67 449.41 255.04 413.23 264.51 413.23 266.4 449.41" style="opacity:0.1"></polygon><polygon points="276.93 449.41 272.76 449.41 269.63 413.23 273.01 413.23 276.93 449.41" style="opacity:0.1"></polygon><polygon points="295.34 449.41 283.6 449.41 278.38 413.23 287.83 413.23 295.34 449.41" style="opacity:0.1"></polygon><polygon points="305.88 449.41 301.7 449.41 292.97 413.23 296.33 413.23 305.88 449.41" style="opacity:0.1"></polygon><polygon points="324.27 449.41 312.54 449.41 301.72 413.23 311.18 413.23 324.27 449.41" style="opacity:0.1"></polygon><polygon points="334.81 449.41 330.63 449.41 316.31 413.23 319.68 413.23 334.81 449.41" style="opacity:0.1"></polygon><polygon points="353.21 449.41 341.48 449.41 325.05 413.23 334.51 413.23 353.21 449.41" style="opacity:0.1"></polygon><polygon points="363.76 449.41 359.57 449.41 339.64 413.23 343.01 413.23 363.76 449.41" style="opacity:0.1"></polygon><polygon points="382.15 449.41 370.41 449.41 348.38 413.23 357.84 413.23 382.15 449.41" style="opacity:0.1"></polygon><polygon points="392.68 449.41 388.51 449.41 362.98 413.23 366.34 413.23 392.68 449.41" style="opacity:0.1"></polygon><polygon points="411.09 449.41 399.35 449.41 371.72 413.23 381.18 413.23 411.09 449.41" style="opacity:0.1"></polygon><polygon points="421.62 449.41 417.44 449.41 386.32 413.23 389.68 413.23 421.62 449.41" style="opacity:0.1"></polygon><polygon points="440.02 449.41 428.28 449.41 395.06 413.23 404.52 413.23 440.02 449.41" style="opacity:0.1"></polygon><rect x="57.12" y="449.41" width="385.75" height="2.74" style="fill:#FF81AE"></rect><rect x="57.12" y="449.41" width="385.75" height="2.74" style="opacity:0.2"></rect></g><g id="freepik--Shadow--inject-294"><g style="opacity:0.1"><path d="M334.81,430.22c0,6.56-37.33,11.88-83.38,11.88s-83.37-5.32-83.37-11.88,37.33-11.89,83.37-11.89S334.81,423.65,334.81,430.22Z"></path></g></g><g id="freepik--Floor--inject-294"><polygon points="45.31 403.71 96.48 403.46 147.66 403.37 250 403.21 352.34 403.37 403.52 403.46 454.69 403.71 403.52 403.95 352.34 404.04 250 404.2 147.66 404.04 96.48 403.95 45.31 403.71" style="fill:#263238"></polygon></g><g id="freepik--Plant--inject-294"><path d="M128,293.38c-3.8-3.72-8.71-8.21-14.52-6.61-5.46,1.51-7.55,7.47-8.53,12.44-1.26,6.41-2.24,12.87-3.26,19.32s-2,13-2.93,19.55q-.8,5.52-1.57,11.05c-.25,1.84-.51,3.68-.76,5.53s-.56,3.61-.66,5.43c0,.58.88.66,1,.11.71-3.07,1-6.27,1.45-9.38s.9-6.27,1.36-9.41c.91-6.23,1.86-12.45,2.79-18.68s1.91-12.44,2.91-18.66c.84-5.28,1.24-11.83,5.91-15.31a9.09,9.09,0,0,1,8.75-.82c3.07,1.18,5.53,3.38,7.93,5.56A.09.09,0,0,0,128,293.38Z" style="fill:#263238"></path><path d="M122.82,289.58s-7.77-2.79-11.6,2.87.75,20.08,36.1,28.21a99.94,99.94,0,0,0-8.5-32C131.24,272.18,117.73,278.44,122.82,289.58Z" style="fill:#FF81AE"></path><path d="M145.29,318.3a27.27,27.27,0,0,0-1.78-2.86c-.59-.91-1.19-1.82-1.79-2.72l-1.38-2c0-.16,0-.33.06-.5l.12-.92c.09-.66.19-1.33.28-2s.21-1.31.34-2a9.65,9.65,0,0,1,.46-2.08c0-.1-.14-.16-.16,0a8.07,8.07,0,0,1-.31,1.17l-.24.89c-.17.67-.33,1.34-.48,2s-.26,1.25-.37,1.88c0,.3-.09.6-.14.9-.63-.9-1.27-1.79-1.93-2.66-1.88-2.47-3.86-4.85-5.92-7.17,0,0,0,0,0-.07.19-3.71.1-7.39.92-11,0-.1-.13-.16-.15-.06a38.16,38.16,0,0,0-1.32,10.57c-.74-.82-1.48-1.64-2.23-2.45-1.73-1.85-3.48-3.67-5.27-5.46-.07-.07-.19,0-.12.11,3,3.21,5.81,6.55,8.57,9.95A60.74,60.74,0,0,0,126,302c-2.39.17-4.78.48-7.16.81-.1,0-.07.17,0,.16a65.52,65.52,0,0,1,7.14-.64c2.31-.1,4.6,0,6.91,0q2.24,2.76,4.41,5.58H137c-.54,0-1.08,0-1.62,0-1.08,0-2.15.1-3.22.19a49.43,49.43,0,0,0-6.53,1,.08.08,0,0,0,0,.16c2.17-.24,4.35-.45,6.53-.53,1,0,2.09,0,3.13,0H137a2,2,0,0,0,.89-.08q1.42,1.85,2.84,3.71c.75,1,1.49,2,2.22,3s1.41,2.15,2.24,3.11C145.22,318.47,145.33,318.38,145.29,318.3Z" style="fill:#263238"></path><path d="M126.2,297.61a23.88,23.88,0,0,0-3.78-.18c-1.26,0-2.53,0-3.79.08-.11,0-.1.16,0,.16,1.28-.1,2.56-.12,3.84-.1s2.48.14,3.71.1C126.23,297.67,126.24,297.62,126.2,297.61Z" style="fill:#263238"></path><path d="M137.29,300.46c.15-1.21.3-2.42.56-3.61a.08.08,0,1,0-.16,0c-.18,1.19-.41,2.37-.59,3.56l-.24,1.78a8.76,8.76,0,0,0-.14,1.69.1.1,0,0,0,.2,0,9.61,9.61,0,0,0,.19-1.69C137.16,301.61,137.23,301,137.29,300.46Z" style="fill:#263238"></path><path d="M135,287.08c-.31,1.18-.62,2.37-.83,3.56-.11.61-.21,1.22-.29,1.83a7.67,7.67,0,0,0-.12,1.79s.08.05.09,0a8.75,8.75,0,0,0,.28-1.7c.08-.59.17-1.17.27-1.76.22-1.23.44-2.45.75-3.66C135.14,287,135,287,135,287.08Z" style="fill:#263238"></path><path d="M88.93,358.78c-.19-2.22-.41-4.45-.64-6.67q-.71-6.6-1.59-13.19c-.59-4.37-1.16-8.76-1.86-13.12a32,32,0,0,0-1.35-5.95,5.65,5.65,0,0,0-3.3-3.73c-4.16-1.43-7,2.88-8.64,5.93,0,.09.08.16.14.08,1-1.45,3.78-5.5,6.94-5.31,2.12.12,3.82,1.63,4.84,6.92,2.54,13.19,4.83,40,5.09,41.71.15.93.8.89.81-.11C89.38,363.15,89.12,361,88.93,358.78Z" style="fill:#263238"></path><path d="M72.67,320.41s3.63-12.84-4.4-6.42c-13.38,10.69-13.86,33.93-13.86,33.93S78.2,334.11,81.15,325C85.56,311.43,72.67,320.41,72.67,320.41Z" style="fill:#FF81AE"></path><path d="M77.17,326.71c-1.87.38-3.76.63-5.64.9l-2.68.38c-.6.08-1.21.14-1.82.21,1.77-2.44,3.56-4.87,5.26-7.36.06-.1-.08-.19-.16-.12a56.44,56.44,0,0,0-4,4.59c-.34-1-.7-2-1.05-3-.4-1.15-.84-2.29-1.13-3.48a.08.08,0,0,0-.15,0c.32,1.18.55,2.38.87,3.56s.65,2.26,1,3.37c-.87,1.13-1.71,2.29-2.52,3.46-.41-1.16-.92-2.28-1.27-3.46,0-.1-.19-.05-.16,0,.43,1.31.66,2.66,1.06,4-.55.8-1.09,1.6-1.61,2.4-1,1.49-1.87,3-2.76,4.52a.36.36,0,0,0-.2.36c-1.51,2.6-2.94,5.23-4.35,7.9,0,.09.1.16.14.07,1.42-2.63,3-5.18,4.62-7.7h0a3.09,3.09,0,0,1,.77-.15l.83-.18c.61-.13,1.22-.29,1.83-.44,1.21-.3,2.4-.59,3.63-.8.1,0,0-.17,0-.15-1.44.27-2.88.44-4.34.6-.69.08-1.37.17-2.05.28l-.1,0q1.27-1.95,2.6-3.87c.86-1.25,1.75-2.49,2.64-3.72.83-.12,1.64-.34,2.46-.49l2.76-.54c1.84-.36,3.68-.78,5.53-1.08C77.32,326.85,77.27,326.69,77.17,326.71Z" style="fill:#263238"></path><path d="M62.88,328c-.11-.34-.21-.68-.32-1A20.1,20.1,0,0,1,62,324.8c0-.1-.17-.05-.15.05.15.73.32,1.45.49,2.17a13.41,13.41,0,0,0,.62,2.14.14.14,0,0,0,.27-.09C63.14,328.7,63,328.34,62.88,328Z" style="fill:#263238"></path><path d="M79.6,323.74c-1.08.16-2.17.24-3.27.34s-2.18.24-3.27.41c0,0-.06.1,0,.09,1.09-.07,2.18-.16,3.27-.3s2.17-.3,3.27-.38C79.71,323.89,79.7,323.73,79.6,323.74Z" style="fill:#263238"></path><path d="M106.44,342.53c-.43-9.45-1-18.89-2-28.3-.47-4.69-1-9.37-1.66-14a101.48,101.48,0,0,0-2.71-13.59A26.16,26.16,0,0,0,95.57,277a10.29,10.29,0,0,0-9.14-4c-4.14.51-7.47,3.12-10.35,6-3.23,3.18-6.19,6.65-9.18,10-.76.85-1.51,1.72-2.26,2.59-.06.08,0,.19.12.11,2.93-3.36,6-6.63,9.15-9.75,2.94-2.89,6-6,10-7.24a10.36,10.36,0,0,1,5.84-.13,9.16,9.16,0,0,1,4,2.52c2.29,2.38,3.58,5.61,4.5,8.74,2.54,8.69,3.45,17.8,4.39,26.77,1,9.12,1.61,18.25,2.07,27.41s.82,18.41,1.7,27.59c.11,1.13.26,2.26.4,3.39.1.76,1.28.76,1.22,0C107.3,361.52,106.86,352,106.44,342.53Z" style="fill:#263238"></path><path d="M75.56,280s5.4-10-1-13.2-27.72,20.62-34,55.46c0,0,34.48-15.25,46.19-30.45S85.24,273.28,75.56,280Z" style="fill:#FF81AE"></path><path d="M80.63,288.13c-3.87,0-7.74-.29-11.61-.27l2.18-2.49a36.26,36.26,0,0,0,3-3.52c0-.08-.06-.19-.14-.13a26.24,26.24,0,0,0-2.93,2.94c-1,1-1.94,2.06-2.9,3.1-1.48,1.61-2.93,3.24-4.38,4.87,0-.16,0-.32,0-.47,0-.68,0-1.36,0-2,0-1.31,0-2.63,0-3.94,0-2.66,0-5.34.2-8,0-.1-.15-.1-.16,0-.18,2.68-.46,5.34-.59,8-.06,1.32-.1,2.63-.11,3.95,0,.68,0,1.35,0,2,0,.37,0,.76,0,1.14-.22.26-.46.51-.68.76-3.1,3.54-6,7.19-8.9,10.91,0-.2,0-.42,0-.62,0-.41-.09-.82-.13-1.23-.1-.88-.23-1.77-.36-2.65s-.25-1.67-.39-2.49-.39-1.88-.46-2.82a.08.08,0,1,0-.16,0,24.7,24.7,0,0,1,.33,2.84c.08.85.16,1.71.23,2.56s.16,1.71.25,2.56c0,.41.07.82.12,1.23,0,.2,0,.41.07.61a1.17,1.17,0,0,0,.17.49c-.49.64-1,1.28-1.47,1.93-2,2.58-3.88,5.2-5.8,7.81-.06.08.06.19.12.11,1.82-2.37,3.69-4.7,5.58-7,1.42.06,2.87-.05,4.29-.07s3,0,4.48,0a.08.08,0,0,0,0-.16c-1.5,0-3,.05-4.49.06s-2.75-.06-4.11,0c1.66-2,3.35-4,5-6.05l1.85-2.19a9.08,9.08,0,0,0,1.73.06h2c1.27,0,2.54,0,3.82-.05,2.63,0,5.26-.13,7.89-.13a.08.08,0,0,0,0-.16c-2.64,0-5.27-.15-7.91-.22l-3.82-.09-2,0c-.39,0-.78,0-1.18,0l4.35-5.15a.24.24,0,0,0,.08-.09c1.41-1.67,2.82-3.33,4.25-5,.2-.22.4-.44.59-.67,4,.13,8-.14,12-.06C80.74,288.29,80.73,288.13,80.63,288.13Z" style="fill:#263238"></path><path d="M78.65,295h-.94a.07.07,0,0,0,0,.14h.94A.08.08,0,0,0,78.65,295Z" style="fill:#263238"></path><path d="M76.56,295c-1.24,0-2.48,0-3.72-.08L71,294.85a7.14,7.14,0,0,0-1.73,0,.06.06,0,0,0,0,.12,6.7,6.7,0,0,0,1.73.12l1.86,0c1.25,0,2.49,0,3.73,0C76.67,295.15,76.67,295,76.56,295Z" style="fill:#263238"></path><path d="M65.73,306.63a50.21,50.21,0,0,0-7.63-.69s0,.05,0,.05c2.54.25,5.07.38,7.59.79C65.79,306.8,65.83,306.64,65.73,306.63Z" style="fill:#263238"></path><path d="M55.36,295.53c0-.22,0-.44-.08-.66-.06-.5-.14-1-.22-1.49-.15-.95-.31-1.89-.49-2.84,0-.08-.17-.06-.16,0,.12,1,.22,1.95.32,2.93l.12,1.44A4.11,4.11,0,0,0,55,296.3a.19.19,0,0,0,.34-.05A1.94,1.94,0,0,0,55.36,295.53Z" style="fill:#263238"></path><path d="M106.1,267.18c-1.24-2.3-2.81-5.33-5.89-5.14-2.54.16-3.69,2.75-4.23,4.9-1.68,6.63-1.8,13.63-2.13,20.43-.69,14.37-1.31,28.75-1.4,43.14q0,6,0,12c0,4.07,0,8.16.28,12.22a.3.3,0,0,0,.6,0c0-3.48-.1-7-.12-10.44s0-6.79.07-10.19q.16-10.31.55-20.62c.26-6.83.56-13.66.85-20.49.14-3.41.28-6.83.44-10.24s.29-6.61.67-9.9c.21-1.85.48-3.69.87-5.5a7.65,7.65,0,0,1,1.59-3.69,3.46,3.46,0,0,1,4.49-.32,9.48,9.48,0,0,1,3.19,4C106,267.35,106.14,267.27,106.1,267.18Z" style="fill:#263238"></path><path d="M105.26,266.08s-2.53-8.94,3.07-4.47c9.32,7.44,9.65,23.63,9.65,23.63s-16.57-9.62-18.63-16C96.28,259.82,105.26,266.08,105.26,266.08Z" style="fill:#FF81AE"></path><path d="M114.49,278.61c-.15-.25-.31-.49-.47-.74a4.82,4.82,0,0,0,0-.76V276c0-.76,0-1.51.09-2.27a.08.08,0,0,0-.16,0c0,.75-.07,1.49-.09,2.23,0,.37,0,.74,0,1.11,0,.14,0,.31,0,.48-.65-1-1.32-2-2-3-.2-.29-.41-.57-.62-.85a17.8,17.8,0,0,1,0-2.92c0-1,0-2.08.07-3.12,0-.1-.16-.09-.16,0,0,1.08-.09,2.16-.14,3.24a19.74,19.74,0,0,0-.06,2.31c-1.6-2.17-3.3-4.27-5-6.36-.06-.07-.18,0-.12.1,1.06,1.35,2.08,2.73,3.08,4.13-2-.46-3.93-.72-5.91-1-.1,0-.14.13,0,.15,2.1.32,4.16.84,6.22,1.3h0c.79,1.12,1.57,2.24,2.35,3.37l.94,1.38h-.09l-.64-.09-1.38-.12c-1-.08-1.91-.13-2.87-.18-.1,0-.1.16,0,.16.94,0,1.88.09,2.81.19l1.48.18.65.08.19,0,1.59,2.34c.94,1.39,1.77,2.87,2.77,4.2A.07.07,0,0,0,117,283,42.84,42.84,0,0,0,114.49,278.61Z" style="fill:#263238"></path><path d="M110.37,268.51v-1.05a16,16,0,0,1,.09-2.19c0-.11-.16-.13-.16,0,0,.73-.08,1.45-.11,2.17,0,.37,0,.73,0,1.09v.5a1.51,1.51,0,0,0,0,.52.07.07,0,0,0,.14,0,1.54,1.54,0,0,0,0-.48Z" style="fill:#263238"></path><path d="M108.32,272.21c-.62-.11-1.25-.14-1.87-.19s-1.37-.12-2-.21a.08.08,0,1,0,0,.16c1.3.09,2.61.32,3.91.36A.06.06,0,0,0,108.32,272.21Z" style="fill:#263238"></path><path d="M113.52,272.26c0,.07,0,.27,0,.35v.91c0,.21,0,.42,0,.63a1.4,1.4,0,0,0,0,.54,0,0,0,0,0,.06,0,.57.57,0,0,0,0-.26v-.91c0-.21,0-.42,0-.63v-.28c0-.09,0-.28,0-.35S113.42,272.11,113.52,272.26Z" style="fill:#263238"></path><path d="M106.48,314.89c-3.48-2.61-6.61-6.37-11.3-6.56-3.87-.15-6.58,2.76-8.13,6a34.55,34.55,0,0,0-1.89,5.34q-1.05,3.66-2,7.37-1.82,7.29-3.1,14.7c-.47,2.75-.91,5.51-1.26,8.28a69.3,69.3,0,0,0-.81,8.48.44.44,0,0,0,.86.1c.48-2.32.67-4.71,1-7.05s.7-4.71,1.09-7.05q1.2-7,2.78-14c1-4.39,2-8.84,3.39-13.11,1-3.06,2.64-6.63,5.95-7.73,5-1.67,9.59,2.59,13.27,5.35C106.45,315.07,106.56,315,106.48,314.89Z" style="fill:#263238"></path><path d="M102.87,312.39s-3.21-9.17,1.44-11c7-2.69,25.18,17.83,21.61,49.27,0,0-14.07-7.75-24.47-16.48s-13-20.12-8.48-23.06S102.87,312.39,102.87,312.39Z" style="fill:#FF81AE"></path><path d="M123.82,344a24.09,24.09,0,0,0-1.69-3.17c-.6-1.08-1.2-2.15-1.82-3.21-1.21-2.07-2.41-4.14-3.65-6.2l-.61-1c0-.12,0-.25.07-.37l.21-.91c.16-.68.27-1.37.4-2.05.25-1.35.49-2.71.85-4,0-.1-.13-.13-.16,0-.28,1.34-.71,2.67-1.11,4-.19.65-.4,1.3-.57,1.95l-.18.67c-1.49-2.45-3-4.89-4.66-7.25a3.34,3.34,0,0,0,.17-1c0-.46.1-.92.15-1.38.13-1,.25-2.07.4-3.1.3-2,.6-4,1.1-6,0-.1-.13-.13-.16,0-.5,2-1,4-1.42,6-.18,1-.36,2-.49,3-.07.5-.12,1-.17,1.5,0,.14,0,.3-.06.45-.5-.71-1-1.43-1.54-2.12-1.6-2.12-3.27-4.18-4.95-6.24-.07-.08-.2,0-.13.09A111.4,111.4,0,0,1,111.72,325c.46.74.91,1.49,1.36,2.23l-.45-.06c-.59-.08-1.18-.11-1.77-.17l-3.56-.31c-2.37-.18-4.75-.33-7.11-.58-.11,0-.13.14,0,.15,2.4.28,4.78.66,7.17,1,1.17.17,2.35.33,3.53.48a14.9,14.9,0,0,0,2.71.28l2.8,4.53c-.21,0-.43,0-.63,0h-3.39c-1.53,0-3.06,0-4.58,0-.11,0-.09.15,0,.16,1.55,0,3.09.09,4.64.17.73,0,1.46.08,2.2.14l1.09.07a2.25,2.25,0,0,0,1,0l2.38,3.86c.73,1.19,1.46,2.37,2.22,3.55a27.88,27.88,0,0,0,2.39,3.58C123.73,344.1,123.86,344.05,123.82,344Z" style="fill:#263238"></path><path d="M117.11,318.54a22.08,22.08,0,0,1-.63,3c-.26,1-.55,2-.88,3a.1.1,0,1,0,.18.06q.48-1.49.84-3c.25-1,.4-2,.65-3C117.29,318.47,117.12,318.43,117.11,318.54Z" style="fill:#263238"></path><path d="M106.77,324.68a1.24,1.24,0,0,0-.77-.29l-1.33-.18c-.82-.11-1.65-.2-2.47-.3-1.72-.2-3.44-.37-5.15-.58-.1,0-.13.14,0,.15,1.62.2,3.23.45,4.85.66l2.37.31,1.15.12a4,4,0,0,1,1.3.23C106.77,324.84,106.82,324.73,106.77,324.68Z" style="fill:#263238"></path><path d="M117.09,338.51c-.81-.07-1.63-.1-2.44-.12l-1.23,0-.59,0a3.94,3.94,0,0,1-.77,0c-.11,0-.12.17,0,.15a3.47,3.47,0,0,1,.72,0l.63,0,1.23.08c.81.05,1.63.1,2.44.1C117.18,338.68,117.19,338.51,117.09,338.51Z" style="fill:#263238"></path><path d="M122.05,335l.27-1.38c.16-.91.33-1.82.49-2.72a.08.08,0,0,0-.15,0l-.6,2.65c-.1.44-.2.88-.29,1.32,0,.21-.09.41-.13.62a1.78,1.78,0,0,0-.07.65.1.1,0,0,0,.18,0A3.48,3.48,0,0,0,122.05,335Z" style="fill:#263238"></path><polygon points="74.39 355 75.37 366.14 78.7 403.77 108.17 403.77 112.33 366.14 113.56 355 74.39 355" style="fill:#37474f"></polygon><polygon points="74.39 355 75.37 366.14 112.33 366.14 113.56 355 74.39 355" style="fill:#263238"></polygon><rect x="71.47" y="351.95" width="45.01" height="9.04" transform="translate(187.95 712.95) rotate(180)" style="fill:#37474f"></rect></g><g id="freepik--Character--inject-294"><path d="M386,380.66c-1.17-3.45-62.94-84.06-67.14-85.59-.48-.21-27.76,19.46-27.76,19.46-1.12,1.51-53.26-9.18-53.26-9.18l-.14,62.82,94.85-2.58s12.86,7.45,24.62,13.52h0c7.23,3.76,13.64,6.93,15.46,7.39C377.45,387.69,387.22,384.1,386,380.66Z" style="fill:#eb9481"></path><path d="M252.7,290.94s-82.08-16.18-117.51-13.24C93,281.2,63.8,319,118.09,351.47c48,28.66,191.09,14.76,191.09,14.76l-35.26-53.92s-42.76-15.45-95-13.37l73.8,9.61Z" style="fill:#37474f"></path><path d="M249.17,290s78.25-15.74,121.39-14c42.26,1.76,63.66,38.52,24.89,70C349.9,383,187.88,372.07,187.88,372.07l25.39-51.69s58.27-22.54,110.45-26.06l-72.35,17.43Z" style="fill:#37474f"></path><path d="M105.81,386.82c1.15-3.46,62.67-84.27,66.86-85.82.48-.2,27.82,19.37,27.82,19.37L253,307.47l0,65.74c-28.35,2.49-89.42-1.64-89.42-1.64s-17.2,7.5-28.93,13.6h0c-7.23,3.79-13.62,7-15.44,7.44C114.41,393.81,104.63,390.26,105.81,386.82Z" style="fill:#eb9481"></path><path d="M162.57,373a157.76,157.76,0,0,1,7.84-14.76c2.84-4.8,5.91-9.46,9.11-14s6.67-9,10.29-13.2a125.74,125.74,0,0,1,11.68-12c-1.73,2.19-3.62,4.22-5.3,6.44s-3.46,4.33-5.17,6.52-3.37,4.39-5,6.63l-2.46,3.35-2.41,3.39c-3.21,4.51-6.33,9.09-9.43,13.7S165.58,368.27,162.57,373Z" style="fill:#FF81AE"></path><path d="M200.76,320c6.94-2.84,62.64-19,127.86-26.8a7.53,7.53,0,0,1,.88-.38c.68-.3,1.36-.6,2.06-.85,1.3-.46,2.62-.85,3.93-1.25,2.74-.84,5.5-1.51,8.21-2.47.16-.05.26.27.1.34-2.72,1.08-5.35,2.41-8.07,3.49l-2.35.91c5.45-.18,10.9-.19,16.37-.1.17,0,.21.33,0,.35-59.25,4.46-140.45,25.1-148.49,27.54C200.4,321,199.72,320.41,200.76,320Z" style="fill:#263238"></path><path d="M128.06,356.32c2.19-3.81,4.76-7.38,7.26-11s5.14-7.12,7.76-10.63Q151,324.2,159.32,314c2.8-3.38,5.62-6.75,8.59-10,.75-.82,1.51-1.62,2.33-2.41a13.88,13.88,0,0,1,1.36-1.17,2.73,2.73,0,0,1,.59-.32,1.53,1.53,0,0,1,.33-.07h.26l.12,0a2.45,2.45,0,0,1,.35.09,8,8,0,0,1,.87.41c2,1.13,3.79,2.37,5.62,3.62,7.19,5.06,14.18,10.35,21.07,15.78l-.44-.09,5.1-.91q2.55-.46,5.1-.87c-1.65.5-3.31,1-5,1.43l-5,1.38-.22.06-.21-.16c-7.17-5-14.28-10.16-21.52-15.05-1.8-1.2-3.63-2.46-5.46-3.46a4.44,4.44,0,0,0-.61-.28l0,0h.17l.14,0s-.06,0-.13.09a10.45,10.45,0,0,0-1.12,1c-.76.74-1.5,1.53-2.23,2.33-2.94,3.2-5.77,6.54-8.58,9.89q-8.43,10.06-16.64,20.32L136,345.82C133.26,349.27,130.55,352.71,128.06,356.32Z" style="fill:#263238"></path><path d="M370.92,358.53c-2.8,1.16-5.68,2.14-8.57,3.07s-5.81,1.74-8.75,2.5-5.9,1.42-8.89,2-6,1-9,1.31c1.47-.37,3-.65,4.43-1s2.95-.67,4.42-1c2.94-.72,5.88-1.42,8.8-2.18l8.79-2.27Z" style="fill:#263238"></path><path d="M236.57,302.5c-6.72-1-13.47-1.93-20.22-2.77a393.49,393.49,0,0,0-40.59-3c-1.27,0-2.54,0-3.81,0-.27-.1-.55-.16-.83-.24-.64-.19-1.28-.38-1.94-.53-1.21-.29-2.44-.52-3.66-.76-2.55-.49-5.11-.87-7.65-1.45a.12.12,0,0,0-.06.24c2.54.68,5,1.54,7.58,2.21l2.2.56c-5,.08-10,.29-14.93.57-.16,0-.17.26,0,.25,6.76-.15,13.57.05,20.32.42s13.42.76,20.11,1.41c13.53,1.3,27,3.05,40.49,5,7.55,1.09,15.11,2.34,22.71,2.95.74.06,1-1.16.23-1.33" style="fill:#263238"></path><path d="M253.72,184.64c0,14.21,25.67,69,38.76,80,4.48,3.77,28.68,20.88,46.79,25.84,8.18,2.23,28.17-34.27,21.11-36.88-9.88-3.65-43.77-18.83-44.87-19.89-7.76-7.53-23.66-31-43.93-53.06C259.94,168,253.72,173.68,253.72,184.64Z" style="fill:#eb9481"></path><path d="M336.91,288.93c10.12,11,24.89,20.07,31,21.24s28.6-3.73,33.45-5.88,11.75-22,13.14-26.52c1.11-3.63-.93-7.79-7.38-3.34-8.27,5.69-10.77,15.57-13.51,16.54s-12.74-2.17-14.1-6.26c-.79-2.4,1.38-7.77,5.72-9.23s8.85,1.11,15,.72,12-6.47,10.78-8.47-3.95-.87-12.35-3.59c-5.41-1.74-11.78-7.57-22.19-9.54-5.23-1-16-1-16-1Z" style="fill:#eb9481"></path><path d="M364.94,297.83c5.69,4.58,18.78,11.88,29.43,12.31,7.19.28,26.63-2.72,26.37-8.17-.36-7.79-25.43-6.46-28.39-7.18-9.11-2.22-17.56-11.15-17.56-11.15Z" style="fill:#eb9481"></path><path d="M383.05,290.46c1,.46,1.89,1,2.85,1.41s1.9.9,2.88,1.28a22.61,22.61,0,0,0,3,1,18.17,18.17,0,0,0,3.07.44l6.32.46a61.75,61.75,0,0,1,6.34.7l-6.37,0q-3.18,0-6.38-.22a16.46,16.46,0,0,1-3.22-.51,18.76,18.76,0,0,1-3-1.16c-1-.48-1.9-1-2.81-1.57S383.88,291.12,383.05,290.46Z" style="fill:#263238"></path><path d="M362.92,298.25c4.75,5.36,16.22,14.56,26.44,16.71,6.92,1.45,26.2,1.72,26.85-3.59.91-7.6-23.55-10.4-26.29-11.58-8.45-3.64-15.16-13.65-15.16-13.65Z" style="fill:#eb9481"></path><path d="M381.33,293.56c1.14,1,2.33,2,3.54,2.93a20.94,20.94,0,0,0,3.82,2.38,10.59,10.59,0,0,0,2.11.64L393,300c1.49.35,3,.71,4.47,1.09,3,.74,5.95,1.5,8.9,2.37A29.24,29.24,0,0,1,410.8,305a10,10,0,0,1,3.67,2.8,10.59,10.59,0,0,0-3.84-2.4,36.12,36.12,0,0,0-4.39-1.24l-9-2.1L392.81,301l-2.24-.55a10.45,10.45,0,0,1-2.26-.78A24.24,24.24,0,0,1,381.33,293.56Z" style="fill:#263238"></path><path d="M354.32,303.5c8.36,5.46,21.85,12.23,26.22,13.39s21.45,3.37,24.82-.55c4.24-4.93-8.92-8.47-14.35-10.08-5.63-1.66-10.87-7.56-10.87-7.56Z" style="fill:#eb9481"></path><path d="M405.85,315.64a3.77,3.77,0,0,0,.31-1.83,2.89,2.89,0,0,0-.77-1.64,8.92,8.92,0,0,0-3.13-2,40.85,40.85,0,0,0-7.18-2.3,28.3,28.3,0,0,1-7.3-2.36,25.08,25.08,0,0,1-6-4.82c-3.47-3.77-6.24-8.05-9.76-11.61a32,32,0,0,0-6-4.49,35.3,35.3,0,0,0-6.85-3.2,31.86,31.86,0,0,1,7.05,2.85,32.92,32.92,0,0,1,3.26,2,23.69,23.69,0,0,1,3,2.36,48,48,0,0,1,5.12,5.66c1.6,2,3.17,4,4.89,5.76a23.68,23.68,0,0,0,5.71,4.73,31.47,31.47,0,0,0,7.06,2.43,40.75,40.75,0,0,1,7.18,2.59,9.18,9.18,0,0,1,3.13,2.22,3,3,0,0,1,.72,1.78A3.81,3.81,0,0,1,405.85,315.64Z" style="fill:#263238"></path><path d="M253.73,184.64c0,14.21,25.66,69,38.75,80A176.32,176.32,0,0,0,310.58,277L257.3,174.31C254.94,176,253.73,179.79,253.73,184.64Z" style="fill:#263238"></path><path d="M310.58,277c4.37,2.56,8.87,4.92,13.46,7,2.3,1.07,4.61,2.1,6.95,3.06s4.72,1.83,7.1,2.66l.08,0,.08.07A103.31,103.31,0,0,0,353,302a129.14,129.14,0,0,0,16.53,9.54c2.9,1.39,5.63,3.12,8.56,4.19a42.37,42.37,0,0,0,9.29,1.84,62.89,62.89,0,0,0,9.5.42,28.48,28.48,0,0,0,4.7-.58,8.5,8.5,0,0,0,4.12-1.95l.09-.09h.11a28.38,28.38,0,0,0,4.22-.35,12.81,12.81,0,0,0,4-1.23,4.35,4.35,0,0,0,1.55-1.33,2.84,2.84,0,0,0,.44-1.95,5.36,5.36,0,0,0-2.35-3.35l-.08-.07.1,0,1.2-.27.59-.16a1.26,1.26,0,0,0,.55-.25,1.2,1.2,0,0,1-.54.27l-.59.19-1.19.31v-.08a5.4,5.4,0,0,1,2.53,3.4,3.11,3.11,0,0,1-.42,2.14,4.78,4.78,0,0,1-1.62,1.48,13.39,13.39,0,0,1-4.11,1.38,25.59,25.59,0,0,1-4.3.45l.21-.09a9,9,0,0,1-4.39,2.19,28.9,28.9,0,0,1-4.8.68,57.48,57.48,0,0,1-9.64-.29,42.76,42.76,0,0,1-9.5-1.83c-3.09-1.11-5.8-2.83-8.68-4.18a118.4,118.4,0,0,1-16.63-9.66,96.15,96.15,0,0,1-14.72-12.39l.15.1c-2.39-.87-4.77-1.78-7.09-2.8s-4.65-2.06-6.92-3.2A141.27,141.27,0,0,1,310.58,277Z" style="fill:#263238"></path><path d="M398.91,283.4c-.6,1.28-1.27,2.53-2,3.77-.35.62-.72,1.22-1.11,1.82a10.17,10.17,0,0,1-1.33,1.72,2.16,2.16,0,0,1-1.07.55,7,7,0,0,1-1.1.14,14.15,14.15,0,0,1-2.17-.11,18.36,18.36,0,0,1-4.19-1,11.91,11.91,0,0,1-2-1l-1.79-1.14a13.34,13.34,0,0,1-1.74-1.3,4.3,4.3,0,0,1-1.27-1.85,4.56,4.56,0,0,1-.05-2.23,10.29,10.29,0,0,1,.65-2.06,8.82,8.82,0,0,1,2.48-3.44,9.36,9.36,0,0,0-2.14,3.58,6.22,6.22,0,0,0-.39,4,6.48,6.48,0,0,0,2.83,2.77l1.8,1.1a11.6,11.6,0,0,0,1.84.9,17.32,17.32,0,0,0,4,1.06,12.84,12.84,0,0,0,2.05.14,3,3,0,0,0,1.82-.46,20,20,0,0,0,2.51-3.31C397.43,285.81,398.16,284.6,398.91,283.4Z" style="fill:#263238"></path><path d="M412.47,296.49l-2.53-.23c-.83-.09-1.67-.18-2.51-.29l-.34-.05.15-.3c.62-1.26,1.28-2.5,2-3.73a16.84,16.84,0,0,1-.69,2c-.25.66-.54,1.3-.84,1.94l-.19-.35c.84.09,1.68.21,2.51.37A17.57,17.57,0,0,1,412.47,296.49Z" style="fill:#263238"></path><path d="M247.34,184.64c0,14.21-25.67,69-38.76,80-4.48,3.77-28.67,20.88-46.79,25.84-8.18,2.23-28.16-34.27-21.11-36.88,9.88-3.65,43.78-18.83,44.87-19.89,7.76-7.53,23.66-31,43.93-53.06C241.12,168,247.35,173.68,247.34,184.64Z" style="fill:#eb9481"></path><path d="M164.15,288.93c-10.11,11-24.88,20.07-31,21.24s-28.59-3.73-33.45-5.88S88,282.31,86.6,277.77c-1.11-3.63.93-7.79,7.38-3.34,8.27,5.69,10.77,15.57,13.52,16.54s12.74-2.17,14.09-6.26c.8-2.4-1.38-7.77-5.72-9.23s-8.84,1.11-15,.72-12-6.47-10.78-8.47,3.94-.87,12.35-3.59c5.4-1.74,11.78-7.57,22.18-9.54,5.23-1,16-1,16-1Z" style="fill:#eb9481"></path><path d="M136.12,297.83c-5.69,4.58-18.77,11.88-29.42,12.31-7.2.28-26.64-2.72-26.38-8.17.36-7.79,25.43-6.46,28.4-7.18,9.1-2.22,17.55-11.15,17.55-11.15Z" style="fill:#eb9481"></path><path d="M118,290.46c-.84.66-1.72,1.26-2.61,1.85s-1.84,1.09-2.81,1.57a18.41,18.41,0,0,1-3,1.16,16.46,16.46,0,0,1-3.22.51q-3.19.24-6.38.22l-6.37,0a61.75,61.75,0,0,1,6.34-.7l6.33-.46a17.91,17.91,0,0,0,3.06-.44,22.61,22.61,0,0,0,3-1c1-.38,1.94-.81,2.88-1.28S117.06,290.92,118,290.46Z" style="fill:#263238"></path><path d="M138.15,298.25c-4.76,5.36-16.22,14.56-26.45,16.71-6.92,1.45-26.2,1.72-26.84-3.59-.92-7.6,23.54-10.4,26.29-11.58,8.44-3.64,15.16-13.65,15.16-13.65Z" style="fill:#eb9481"></path><path d="M119.74,293.56a24.15,24.15,0,0,1-7,6.1,10.45,10.45,0,0,1-2.26.78l-2.23.55-4.47,1.09-9,2.1a35.61,35.61,0,0,0-4.39,1.24,10.43,10.43,0,0,0-3.84,2.4,9.86,9.86,0,0,1,3.67-2.8,29.12,29.12,0,0,1,4.38-1.52c2.95-.87,5.92-1.63,8.9-2.37,1.49-.38,3-.74,4.48-1.09l2.24-.53a10.79,10.79,0,0,0,2.11-.64,20.94,20.94,0,0,0,3.82-2.38Q118,295.11,119.74,293.56Z" style="fill:#263238"></path><path d="M146.74,303.5c-8.35,5.46-21.85,12.23-26.22,13.39s-21.45,3.37-24.82-.55c-4.24-4.93,8.92-8.47,14.36-10.08,5.62-1.66,10.86-7.56,10.86-7.56Z" style="fill:#eb9481"></path><path d="M95.21,315.64a3.92,3.92,0,0,1-.45-1.85,3.08,3.08,0,0,1,.72-1.78,9.28,9.28,0,0,1,3.13-2.22,41.14,41.14,0,0,1,7.19-2.59,31.56,31.56,0,0,0,7-2.43,23.92,23.92,0,0,0,5.72-4.73c1.72-1.81,3.29-3.79,4.88-5.76a48.91,48.91,0,0,1,5.12-5.66,23.69,23.69,0,0,1,3-2.36,33.06,33.06,0,0,1,3.27-2,31.59,31.59,0,0,1,7-2.85,35,35,0,0,0-6.84,3.2,32.09,32.09,0,0,0-6,4.49c-3.52,3.56-6.28,7.84-9.76,11.61a24.89,24.89,0,0,1-6,4.82,28.3,28.3,0,0,1-7.3,2.36,40.75,40.75,0,0,0-7.17,2.3,8.87,8.87,0,0,0-3.14,2,2.87,2.87,0,0,0-.76,1.64A3.77,3.77,0,0,0,95.21,315.64Z" style="fill:#263238"></path><path d="M247.33,184.64c0,14.21-25.66,69-38.74,80A177.53,177.53,0,0,1,190.49,277l53.27-102.67C246.13,176,247.33,179.79,247.33,184.64Z" style="fill:#263238"></path><path d="M190.49,277a142.71,142.71,0,0,1-13.27,7.47c-2.27,1.14-4.58,2.2-6.91,3.2s-4.71,1.93-7.1,2.8l.16-.1a96.7,96.7,0,0,1-14.73,12.39A117.83,117.83,0,0,1,132,312.4c-2.87,1.35-5.59,3.07-8.68,4.18a42.76,42.76,0,0,1-9.5,1.83,57.45,57.45,0,0,1-9.64.29,28.9,28.9,0,0,1-4.8-.68A9.09,9.09,0,0,1,95,315.83l.21.09a25.81,25.81,0,0,1-4.3-.45,13.33,13.33,0,0,1-4.1-1.38,4.72,4.72,0,0,1-1.63-1.48,3.23,3.23,0,0,1-.42-2.14,5.43,5.43,0,0,1,2.53-3.4v.08l-1.19-.31-.59-.19a1.2,1.2,0,0,1-.54-.27,1.32,1.32,0,0,0,.55.25l.59.16,1.2.27.11,0-.09.07A5.36,5.36,0,0,0,85,310.5a2.89,2.89,0,0,0,.44,1.95A4.43,4.43,0,0,0,87,313.78,13,13,0,0,0,91,315a28.49,28.49,0,0,0,4.22.35h.11l.09.09a8.53,8.53,0,0,0,4.13,1.95,28.23,28.23,0,0,0,4.69.58,63,63,0,0,0,9.51-.42,42.28,42.28,0,0,0,9.28-1.84c2.94-1.07,5.66-2.8,8.57-4.19A129.14,129.14,0,0,0,148.12,302a104.44,104.44,0,0,0,14.7-12.14l.07-.07.08,0c2.39-.83,4.77-1.69,7.1-2.66s4.66-2,7-3.06Q183.91,280.83,190.49,277Z" style="fill:#263238"></path><path d="M102.15,283.4c.75,1.2,1.48,2.41,2.27,3.58a20,20,0,0,0,2.52,3.31,2.93,2.93,0,0,0,1.81.46,13,13,0,0,0,2.06-.14,17.24,17.24,0,0,0,4-1.06,11.2,11.2,0,0,0,1.84-.9l1.81-1.1a6.46,6.46,0,0,0,2.82-2.77,6.09,6.09,0,0,0-.39-4,9.23,9.23,0,0,0-2.14-3.58,8.72,8.72,0,0,1,2.48,3.44,9.15,9.15,0,0,1,.65,2.06,4.44,4.44,0,0,1,0,2.23,4.14,4.14,0,0,1-1.27,1.85,13.25,13.25,0,0,1-1.73,1.3l-1.8,1.14a11.81,11.81,0,0,1-1.94,1,18.49,18.49,0,0,1-4.19,1,14.28,14.28,0,0,1-2.17.11,7,7,0,0,1-1.11-.14,2.17,2.17,0,0,1-1.06-.55,10.17,10.17,0,0,1-1.33-1.72c-.4-.6-.77-1.2-1.12-1.82C103.42,285.93,102.75,284.68,102.15,283.4Z" style="fill:#263238"></path><path d="M88.59,296.49a17.93,17.93,0,0,1,2.47-.64c.83-.16,1.67-.28,2.52-.37l-.2.35c-.3-.64-.58-1.28-.84-1.94a16.84,16.84,0,0,1-.69-2c.7,1.23,1.36,2.47,2,3.73l.15.3-.34.05c-.83.11-1.67.2-2.51.29Z" style="fill:#263238"></path><path d="M200.53,282.33s23.92,14.33,52,14.33c24.35,0,47-15.22,47-15.22s-17.85-81.77-33.68-102.7c-10.2-13.47-24.38-10.66-31.54-.78C221.56,195.46,200.53,282.33,200.53,282.33Z" style="fill:#FF81AE"></path><g style="opacity:0.1"><path d="M246.85,237.46l-.41-.32-.2-.15-.06-.05c-.87-.68-1.73-1.39-2.54-2.15-.52-.47-1-1-1.5-1.47s-1-1-1.42-1.57a28.81,28.81,0,0,1-2.51-3.46,24.94,24.94,0,0,1-2-3.86c-.17-.42-.33-.84-.48-1.27l-.15-.42c-.72-2.15-1.21-4.32-1.76-6.39-.34-1.31-.69-2.6-1.11-3.87a38.74,38.74,0,0,0-1.39-3.72c-.46-1.09-1-2.16-1.51-3.19a.31.31,0,0,0-.05-.1,33.54,33.54,0,0,0-2.22-3.63,36.53,36.53,0,0,0-2.44-3.13c-.11-.12-.21-.24-.33-.36.36-1,.73-2,1.09-2.93a34.33,34.33,0,0,1,4.21,4.56l.65.87.61.9c.2.3.39.61.58.92s.39.61.56.93l.52,1c.17.32.32.64.48,1s.31.65.46,1,.3.65.44,1a42.45,42.45,0,0,1,1.47,4c.4,1.38.75,2.76,1,4.13l.2,1,.06.28.13.61v.06l.43,2.11c.27,1.32.57,2.61,1,3.88a29.86,29.86,0,0,0,3.32,7.23,71.68,71.68,0,0,0,4.69,6.51Z"></path><path d="M258.07,221.05s1-5.27-8.68-5.42c-8.13-.11-12.13,1.91-12.13,1.91s7,3.3,10.62,4.65C252.57,224,257.48,224,258.07,221.05Z"></path><path d="M246.28,192.13s-.63-5.33-9.9-2.61c-7.8,2.28-11,5.4-11,5.4s7.7,1.07,11.52,1.3C241.88,196.53,246.57,195.08,246.28,192.13Z"></path><path d="M250.35,206.08s-2.71-3.42-8,2.42C237.94,213.42,237,217,237,217s5.8-2.55,8.55-4C249.18,211,251.81,208,250.35,206.08Z"></path><path d="M229.19,240s-4.46-1.62-.24-9c3.55-6.25,6.88-8.39,6.88-8.39s-.64,6.84-1.21,10.17C233.87,237.14,231.66,240.88,229.19,240Z"></path><path d="M223.23,226.15s-5.29-1.6-.85-10.52c3.74-7.5,7.49-10.21,7.49-10.21s-.32,8-.77,11.93C228.5,222.49,226.17,227,223.23,226.15Z"></path><path d="M258.18,251.06s-3.5,3-7.84-4.09c-3.66-6-3.9-9.87-3.9-9.87s5.54,3.8,8.12,5.88C257.94,245.69,260.08,249.35,258.18,251.06Z"></path><path d="M242.19,254.67s-4.53-1-1.46-8.73c2.57-6.53,5.51-9.06,5.51-9.06s.32,6.71.22,10C246.33,251.23,244.71,255.15,242.19,254.67Z"></path><path d="M296.88,283c-.69.41-1.52.89-2.46,1.41a33.63,33.63,0,0,1-3.92-3.25q-.75-.7-1.44-1.47l-.45-.5c-.24-.27-.48-.54-.71-.82l-.67-.85c-.23-.28-.44-.58-.65-.87s-.43-.58-.62-.89l-.59-.91c-.19-.31-.37-.62-.55-.93s-.36-.62-.53-.93-.35-.63-.51-.95a41.47,41.47,0,0,1-1.75-3.92c-.51-1.34-.95-2.7-1.34-4l-1.11-4-.3-1c0-.11-.07-.23-.1-.34-.26-.82-.54-1.64-.84-2.43a29.75,29.75,0,0,0-3.83-7,63.79,63.79,0,0,0-4.76-5.74.1.1,0,0,1,0-.05h0l0,0s0,0,0,0l-.44-.48.36.24.16.11a.24.24,0,0,1,.09.06l.08,0c.92.62,1.83,1.27,2.7,2,.56.43,1.08.9,1.61,1.36s1,1,1.53,1.46a28.83,28.83,0,0,1,2.75,3.27,24.61,24.61,0,0,1,2.21,3.7h0a1.42,1.42,0,0,1,.08.18c.11.2.2.4.29.61a.36.36,0,0,1,0,.09h0c1,2.32,1.77,4.73,2.54,7,.43,1.28.87,2.55,1.38,3.77s1.05,2.44,1.66,3.62a37.87,37.87,0,0,0,3.26,5.32c.16.23.33.45.51.68l.5.63a36.81,36.81,0,0,0,2.65,2.94c.94.93,1.93,1.83,3,2.69Z"></path><path d="M271.14,273.93s-1.89,5,7.59,6.88c8,1.56,12.27.28,12.27.28s-6.34-4.5-9.63-6.47C277.07,272.05,272.24,271.18,271.14,273.93Z"></path><path d="M268.54,255.07s-1.05,2.79,4.21,3.82c4.43.87,6.82.15,6.82.15s-3.52-2.49-5.35-3.59C271.84,254,269.15,253.54,268.54,255.07Z"></path><path d="M284.05,240.5s3.84.78,1.29,7.36c-2.13,5.53-4.6,7.68-4.6,7.68s-.31-5.66-.24-8.46C280.58,243.43,281.92,240.11,284.05,240.5Z"></path><path d="M291.26,248.58s2,2.57-3.19,5.3c-4.34,2.3-7.05,2.3-7.05,2.3s2.88-3.7,4.44-5.42C287.5,248.52,290.14,247.18,291.26,248.58Z"></path><path d="M281.2,229.44s3.64,2.87-2.56,8.47c-5.22,4.71-9,5.67-9,5.67s2.7-6.15,4.26-9.08C276,230.68,279.16,227.89,281.2,229.44Z"></path><path d="M296.27,267.68s0,0,0,0c-.08.2-.17.41-.27.62a27.31,27.31,0,0,1-5.5,8.26c-.34.32-.53.47-.53.47s0-.44,0-1.15c0-2.06.12-6.4.34-8.86.33-3.86,1.83-7.32,3.92-7.57C295,262.42,295.68,265.18,296.27,267.68Z"></path><path d="M268.49,225.47s4.61-.39,3.91,7.93c-.6,7-2.68,10.27-2.68,10.27s-2.23-6.34-3.09-9.54C265.51,230,265.94,225.73,268.49,225.47Z"></path></g><path d="M256.65,187.13c-5.36,0-12.25-5.28-16.42-11.36-.29-.42-.08-5.14-.11-10.88,0-3.49-.14-7.38-.5-10.91-.08-.73,22.72,3.13,22.72,3.13a56.92,56.92,0,0,0-.76,13.79,7.8,7.8,0,0,0,.3,1.44c0,.07,0,.14.06.24C262.67,175.29,263.34,187.13,256.65,187.13Z" style="fill:#eb9481"></path><path d="M241,153.93c1.64,5.88,6.83,19.94,18.69,19a13.28,13.28,0,0,0,2.25-.35.78.78,0,0,0-.05-.24,8.81,8.81,0,0,1-.3-1.43,56.52,56.52,0,0,1,.76-13.81S245.89,154.32,241,153.93Z" style="fill:#263238"></path><path d="M237.1,125.57c-2.7,7.81.65,30.78,6.08,36.07,7.88,7.67,21.18,8.86,27.81-.7,6.41-9.27,1.53-39.13-4.58-44C257.41,109.82,241.08,114,237.1,125.57Z" style="fill:#eb9481"></path><path d="M251.17,135.53a17.41,17.41,0,0,0,2-.55,3.34,3.34,0,0,0,1.93-.95,1.07,1.07,0,0,0-.08-1.3,2.66,2.66,0,0,0-2.64-.46,3.87,3.87,0,0,0-2.35,1.52A1.14,1.14,0,0,0,251.17,135.53Z" style="fill:#263238"></path><path d="M267.37,133.83a20.35,20.35,0,0,1-2.07-.09,3.34,3.34,0,0,1-2.1-.49A1.06,1.06,0,0,1,263,132a2.6,2.6,0,0,1,2.47-1,3.83,3.83,0,0,1,2.63.95A1.14,1.14,0,0,1,267.37,133.83Z" style="fill:#263238"></path><path d="M255.94,154.3c.41.33.83.79,1.4.78a4.11,4.11,0,0,0,1.63-.56s.11,0,.08.07a2.11,2.11,0,0,1-1.89,1,1.65,1.65,0,0,1-1.36-1.25A.09.09,0,0,1,255.94,154.3Z" style="fill:#263238"></path><path d="M257.11,149.48a5.32,5.32,0,0,0,3.77,2,6.47,6.47,0,0,0,1.91-.11,1.35,1.35,0,0,0,.36-.08l.34-.08a.39.39,0,0,0,.27-.38h0a.41.41,0,0,0,0-.16h0l0-.14c-.08-1.2-.38-3-.38-3,.46.18,2.79.95,2.69.33-.83-5.15-1.76-10.87-3.67-15.82a.14.14,0,0,0-.28.07c.6,5,2.08,9.82,2.76,14.81a9.5,9.5,0,0,0-2.57-.51c-.17.07.64,3.49.64,4a.21.21,0,0,1,0,.06c-2,.46-3.56,0-5.65-1.15C257.11,149.25,257,149.36,257.11,149.48Z" style="fill:#263238"></path><path d="M262,150.93a6.43,6.43,0,0,1-2.42,2.1,2.83,2.83,0,0,1-1.71.2c-1.27-.26-1.36-1.4-1.19-2.39a7,7,0,0,1,.47-1.53A8.22,8.22,0,0,0,262,150.93Z" style="fill:#263238"></path><path d="M259.62,153a2.83,2.83,0,0,1-1.71.2c-1.27-.26-1.36-1.4-1.19-2.39A2.92,2.92,0,0,1,259.62,153Z" style="fill:#ff9bbc"></path><path d="M254.85,139.58c0-.06-.12.09-.11.16.2,1.62.16,3.52-1.27,4.2,0,0,0,.1,0,.09C255.27,143.61,255.31,141.09,254.85,139.58Z" style="fill:#263238"></path><path d="M255.06,141.35a2.49,2.49,0,0,1-.44,1.25,1.84,1.84,0,0,1-1.27.69,1.61,1.61,0,0,1-1.34-.57,2.9,2.9,0,0,1-.58-1.18,4.89,4.89,0,0,1-.11-.78,3.52,3.52,0,0,1,.22-1.61,5.09,5.09,0,0,0,.16,1.18,6.39,6.39,0,0,0,.32,1c.27.68.73,1.23,1.28,1.15s1-.54,1.15-1.26a11,11,0,0,0,.26-2.27A5.14,5.14,0,0,1,255.06,141.35Z" style="fill:#263238"></path><path d="M264.68,138.54c0-.07.13.07.13.14,0,1.64.35,3.51,1.85,4,0,0,0,.1,0,.09C264.83,142.59,264.45,140.1,264.68,138.54Z" style="fill:#263238"></path><path d="M264.72,140.32a2.52,2.52,0,0,0,.62,1.17,1.85,1.85,0,0,0,1.35.51,1.61,1.61,0,0,0,1.25-.76,2.7,2.7,0,0,0,.4-1.24,5.23,5.23,0,0,0,0-.79,3.49,3.49,0,0,0-.45-1.56,5.18,5.18,0,0,1,0,1.18,7.11,7.11,0,0,1-.17,1.06c-.18.71-.55,1.31-1.11,1.31s-1.05-.39-1.32-1.08a12.21,12.21,0,0,1-.58-2.2A5.25,5.25,0,0,0,264.72,140.32Z" style="fill:#263238"></path><path d="M271,125c-7.8,6.61-20.16-.92-20.16-.92a9.17,9.17,0,0,1-8.67,6.72s-.2,14.37-3.95,14.72c-5.71.55-9.44-18.64-8-22.63s6.15-5.45,6.15-5.45,0-3,3.3-6c3.59-3.38,17.45-.74,17.45-.74a12.58,12.58,0,0,1,3-5,3.54,3.54,0,0,1,5.12,0,8.4,8.4,0,0,0-1,3.64c-.25,4.23,3.15,3.88,2.73.11a5.87,5.87,0,0,0-1.72-3.75c1.43-2.63,4.08-3.72,5.88-2.57C274.35,105.1,277.52,119.48,271,125Z" style="fill:#263238"></path><path d="M240.94,126.36a.19.19,0,1,0-.35.12,36.73,36.73,0,0,1,1.72,8.56c.12,2.88-.67,10.24-4.87,9.81a.16.16,0,0,0-.06.32c2.84,1,4.36-2.64,5-5.15C243.55,135.47,242.49,130.65,240.94,126.36Z" style="fill:#263238"></path><path d="M270.85,102.85s-.06,0,0,0c4.91,5.09,6.77,12.84,3.39,19.33-4.25,8.16-14.93,4.27-21.33,1.63-.32-.13-.56.33-.24.47,6.24,2.76,17.05,6.41,21.6-1.07C278.29,116.57,276.32,108,270.85,102.85Z" style="fill:#263238"></path><path d="M237.57,117.27c-5.54,1.17-9.28,4.23-9.23,10.22a21.84,21.84,0,0,0,7.54,15.84c.22.19.49-.13.3-.33a24.66,24.66,0,0,1-6.78-11.73c-.75-3.4-.73-7.28,1.41-10.21,1.54-2.1,4.47-2.87,6.83-3.58A.11.11,0,0,0,237.57,117.27Z" style="fill:#263238"></path><path d="M258.92,111.66c-7.43-3.57-21.69-6.22-22.5,5.66,0,.1.16.11.17,0,1.48-12,14.69-8,22.21-5.36C259,112,259.08,111.74,258.92,111.66Z" style="fill:#263238"></path><path d="M241.3,144.34s-5-7.46-8.42-5.68.33,12.55,4.24,14.08a4,4,0,0,0,5.39-2.06Z" style="fill:#eb9481"></path><path d="M234,141.72a.06.06,0,0,0,0,.11c2.74,1.16,4.15,3.74,5.12,6.41a2.2,2.2,0,0,0-3.29-.66c-.08,0,0,.16.07.15a2.46,2.46,0,0,1,2.69.9,11.79,11.79,0,0,1,1.26,2.21c.13.25.58.13.49-.16l0-.06C240.44,147.1,237.79,142.14,234,141.72Z" style="fill:#263238"></path></g><g id="freepik--Sparkles--inject-294"><polygon points="215.74 90.95 219.72 90.22 220.61 86.03 221.5 90.22 225.47 90.95 221.51 91.92 220.61 95.88 219.7 91.92 215.74 90.95" style="fill:#FF81AE"></polygon><polygon points="153.06 212.15 157.04 211.41 157.93 207.22 158.82 211.41 162.79 212.15 158.83 213.12 157.93 217.07 157.02 213.12 153.06 212.15" style="fill:#FF81AE"></polygon><polygon points="311.11 131.65 315.09 130.91 315.98 126.72 316.87 130.91 320.84 131.65 316.88 132.62 315.98 136.58 315.07 132.62 311.11 131.65" style="fill:#FF81AE"></polygon><polygon points="331.29 227.1 335.27 226.37 336.16 222.18 337.05 226.37 341.02 227.1 337.06 228.07 336.16 232.03 335.25 228.07 331.29 227.1" style="fill:#FF81AE"></polygon><polygon points="198.48 194.17 202.46 193.44 203.35 189.25 204.24 193.44 208.21 194.18 204.25 195.14 203.35 199.1 202.44 195.14 198.48 194.17" style="fill:#FF81AE"></polygon><polygon points="129.21 237.34 131.44 236.93 131.93 234.59 132.43 236.93 134.65 237.35 132.44 237.89 131.93 240.1 131.43 237.89 129.21 237.34" style="fill:#FF81AE"></polygon><polygon points="278.18 117.24 280.41 116.83 280.9 114.48 281.4 116.83 283.62 117.24 281.41 117.78 280.9 119.99 280.4 117.78 278.18 117.24" style="fill:#FF81AE"></polygon><polygon points="273.67 163.88 275.89 163.47 276.39 161.12 276.88 163.47 279.11 163.88 276.89 164.42 276.39 166.63 275.88 164.42 273.67 163.88" style="fill:#FF81AE"></polygon><polygon points="239.87 76.18 242.09 75.77 242.59 73.43 243.09 75.77 245.31 76.18 243.1 76.72 242.59 78.94 242.08 76.72 239.87 76.18" style="fill:#FF81AE"></polygon><polygon points="312.49 201.86 314.71 201.44 315.2 199.1 315.7 201.44 317.93 201.86 315.71 202.4 315.2 204.61 314.7 202.4 312.49 201.86" style="fill:#FF81AE"></polygon><polygon points="325.7 113.78 327.93 113.37 328.42 111.03 328.92 113.37 331.14 113.78 328.93 114.32 328.42 116.54 327.92 114.32 325.7 113.78" style="fill:#FF81AE"></polygon><polygon points="328.42 179.47 330.64 179.05 331.14 176.71 331.64 179.05 333.86 179.47 331.65 180.01 331.14 182.22 330.63 180.01 328.42 179.47" style="fill:#FF81AE"></polygon><polygon points="170.22 222.14 172.44 221.73 172.94 219.38 173.44 221.73 175.66 222.14 173.44 222.68 172.94 224.89 172.43 222.68 170.22 222.14" style="fill:#FF81AE"></polygon><path d="M208.67,115.77a.64.64,0,0,0,0-1.28A.64.64,0,0,0,208.67,115.77Z" style="fill:#FF81AE"></path><path d="M370.16,231.93a.65.65,0,0,0,0-1.29A.65.65,0,0,0,370.16,231.93Z" style="fill:#FF81AE"></path><path d="M179.3,148.45a.65.65,0,0,0,0-1.29A.65.65,0,0,0,179.3,148.45Z" style="fill:#FF81AE"></path><path d="M341,126.75a.65.65,0,0,0,0-1.29A.65.65,0,0,0,341,126.75Z" style="fill:#FF81AE"></path><path d="M304.07,170.26a.46.46,0,0,0,0-.91A.46.46,0,0,0,304.07,170.26Z" style="fill:#FF81AE"></path><path d="M254.7,86.06a.46.46,0,0,0,0-.91A.46.46,0,0,0,254.7,86.06Z" style="fill:#FF81AE"></path><path d="M299.67,85.68a.46.46,0,0,0,0-.91A.46.46,0,0,0,299.67,85.68Z" style="fill:#FF81AE"></path><path d="M208,155a1.24,1.24,0,0,0,0-2.47A1.24,1.24,0,0,0,208,155Z" style="fill:#FF81AE"></path><path d="M293.83,109.87a1.24,1.24,0,0,0,0-2.47A1.24,1.24,0,0,0,293.83,109.87Z" style="fill:#FF81AE"></path></g></svg>